<mxfile host="app.diagrams.net" agent="Mozilla/5.0 (Windows NT 10.0; Win64; x64) AppleWebKit/537.36 (KHTML, like Gecko) Chrome/140.0.0.0 Safari/537.36 Edg/140.0.0.0" version="28.2.5">
  <diagram name="Страница — 1" id="c7B_IJeVRaq-XSeznX0F">
    <mxGraphModel dx="2978" dy="1994" grid="0" gridSize="10" guides="1" tooltips="1" connect="1" arrows="1" fold="1" page="0" pageScale="1" pageWidth="827" pageHeight="1169" math="0" shadow="0">
      <root>
        <mxCell id="0" />
        <mxCell id="1" parent="0" />
        <mxCell id="fo7hstUSqARlFea2IAHi-1" value="&lt;font style=&quot;font-size: 14px;&quot; face=&quot;Times New Roman&quot;&gt;АРТЕФАКТЫ&lt;/font&gt;" style="rounded=0;whiteSpace=wrap;html=1;" parent="1" vertex="1">
          <mxGeometry x="-1271" y="-1060" width="325" height="60" as="geometry" />
        </mxCell>
        <mxCell id="fo7hstUSqARlFea2IAHi-2" value="" style="endArrow=none;html=1;rounded=0;entryX=0.5;entryY=1;entryDx=0;entryDy=0;" parent="1" edge="1" target="fo7hstUSqARlFea2IAHi-1">
          <mxGeometry width="50" height="50" relative="1" as="geometry">
            <mxPoint x="-1319" y="-469" as="sourcePoint" />
            <mxPoint x="-1315" y="-966" as="targetPoint" />
          </mxGeometry>
        </mxCell>
        <mxCell id="fo7hstUSqARlFea2IAHi-3" value="&lt;font face=&quot;Times New Roman&quot; style=&quot;font-size: 14px;&quot;&gt;Устав проекта&lt;/font&gt;" style="ellipse;whiteSpace=wrap;html=1;" parent="1" vertex="1">
          <mxGeometry x="-996" y="-921" width="136" height="54" as="geometry" />
        </mxCell>
        <mxCell id="fo7hstUSqARlFea2IAHi-4" value="" style="endArrow=none;html=1;rounded=0;entryX=0;entryY=0.5;entryDx=0;entryDy=0;" parent="1" edge="1" target="fo7hstUSqARlFea2IAHi-3">
          <mxGeometry width="50" height="50" relative="1" as="geometry">
            <mxPoint x="-1151" y="-894.5" as="sourcePoint" />
            <mxPoint x="-1040" y="-894.5" as="targetPoint" />
          </mxGeometry>
        </mxCell>
        <mxCell id="fo7hstUSqARlFea2IAHi-5" value="" style="endArrow=none;html=1;rounded=0;exitX=1;exitY=0.5;exitDx=0;exitDy=0;" parent="1" edge="1" source="fo7hstUSqARlFea2IAHi-6">
          <mxGeometry width="50" height="50" relative="1" as="geometry">
            <mxPoint x="-1260" y="-894.5" as="sourcePoint" />
            <mxPoint x="-1145" y="-894.5" as="targetPoint" />
          </mxGeometry>
        </mxCell>
        <mxCell id="fo7hstUSqARlFea2IAHi-6" value="&lt;font style=&quot;font-size: 14px;&quot;&gt;Документы управления&lt;/font&gt;" style="ellipse;whiteSpace=wrap;html=1;" parent="1" vertex="1">
          <mxGeometry x="-1428" y="-921" width="120" height="45" as="geometry" />
        </mxCell>
        <mxCell id="fo7hstUSqARlFea2IAHi-7" value="" style="endArrow=none;html=1;rounded=0;exitX=1;exitY=0.5;exitDx=0;exitDy=0;" parent="1" edge="1" source="fo7hstUSqARlFea2IAHi-8">
          <mxGeometry width="50" height="50" relative="1" as="geometry">
            <mxPoint x="-1301" y="-803" as="sourcePoint" />
            <mxPoint x="-1188" y="-803" as="targetPoint" />
          </mxGeometry>
        </mxCell>
        <mxCell id="fo7hstUSqARlFea2IAHi-8" value="&lt;font face=&quot;Times New Roman&quot; style=&quot;font-size: 14px;&quot;&gt;План управления проектом&lt;/font&gt;" style="ellipse;whiteSpace=wrap;html=1;" parent="1" vertex="1">
          <mxGeometry x="-1437" y="-834" width="104" height="43" as="geometry" />
        </mxCell>
        <mxCell id="fo7hstUSqARlFea2IAHi-9" value="" style="endArrow=none;html=1;rounded=0;entryX=0;entryY=0.5;entryDx=0;entryDy=0;" parent="1" edge="1" target="fo7hstUSqARlFea2IAHi-10">
          <mxGeometry width="50" height="50" relative="1" as="geometry">
            <mxPoint x="-1190" y="-803" as="sourcePoint" />
            <mxPoint x="-1075" y="-803" as="targetPoint" />
          </mxGeometry>
        </mxCell>
        <mxCell id="fo7hstUSqARlFea2IAHi-10" value="&lt;font face=&quot;Times New Roman&quot; style=&quot;font-size: 14px;&quot;&gt;Бэклог продукта&lt;/font&gt;" style="ellipse;whiteSpace=wrap;html=1;" parent="1" vertex="1">
          <mxGeometry x="-1028" y="-823" width="93" height="51" as="geometry" />
        </mxCell>
        <mxCell id="fo7hstUSqARlFea2IAHi-11" value="" style="endArrow=none;html=1;rounded=0;" parent="1" edge="1">
          <mxGeometry width="50" height="50" relative="1" as="geometry">
            <mxPoint x="-1303" y="-376" as="sourcePoint" />
            <mxPoint x="-1318" y="-469" as="targetPoint" />
          </mxGeometry>
        </mxCell>
        <mxCell id="fo7hstUSqARlFea2IAHi-12" value="" style="endArrow=none;html=1;rounded=0;" parent="1" edge="1">
          <mxGeometry width="50" height="50" relative="1" as="geometry">
            <mxPoint x="-1340" y="-544" as="sourcePoint" />
            <mxPoint x="-1298" y="-544" as="targetPoint" />
          </mxGeometry>
        </mxCell>
        <mxCell id="fo7hstUSqARlFea2IAHi-13" value="" style="endArrow=none;html=1;rounded=0;" parent="1" edge="1">
          <mxGeometry width="50" height="50" relative="1" as="geometry">
            <mxPoint x="-1340" y="-525" as="sourcePoint" />
            <mxPoint x="-1298" y="-525" as="targetPoint" />
          </mxGeometry>
        </mxCell>
        <mxCell id="fo7hstUSqARlFea2IAHi-16" value="&lt;font face=&quot;Times New Roman&quot;&gt;&lt;span style=&quot;font-size: 14px;&quot;&gt;АРТЕФАКТЫ ТРЕБОВАНИЙ&lt;/span&gt;&lt;/font&gt;" style="rounded=0;whiteSpace=wrap;html=1;" parent="1" vertex="1">
          <mxGeometry x="-1428" y="-375" width="283" height="60" as="geometry" />
        </mxCell>
        <mxCell id="fo7hstUSqARlFea2IAHi-17" value="" style="endArrow=none;html=1;rounded=0;" parent="1" edge="1">
          <mxGeometry width="50" height="50" relative="1" as="geometry">
            <mxPoint x="-1304" y="239" as="sourcePoint" />
            <mxPoint x="-1304" y="-323" as="targetPoint" />
          </mxGeometry>
        </mxCell>
        <mxCell id="fo7hstUSqARlFea2IAHi-18" value="&lt;br&gt;&lt;div&gt;Техническое задание&lt;/div&gt;" style="ellipse;whiteSpace=wrap;html=1;" parent="1" vertex="1">
          <mxGeometry x="-1194" y="-253" width="94" height="44" as="geometry" />
        </mxCell>
        <mxCell id="fo7hstUSqARlFea2IAHi-19" value="" style="endArrow=none;html=1;rounded=0;" parent="1" edge="1">
          <mxGeometry width="50" height="50" relative="1" as="geometry">
            <mxPoint x="-1297" y="-233" as="sourcePoint" />
            <mxPoint x="-1193.5" y="-233" as="targetPoint" />
          </mxGeometry>
        </mxCell>
        <mxCell id="fo7hstUSqARlFea2IAHi-20" value="" style="endArrow=none;html=1;rounded=0;" parent="1" target="fo7hstUSqARlFea2IAHi-21" edge="1">
          <mxGeometry width="50" height="50" relative="1" as="geometry">
            <mxPoint x="-1299" y="-133" as="sourcePoint" />
            <mxPoint x="-1196" y="-133" as="targetPoint" />
          </mxGeometry>
        </mxCell>
        <mxCell id="fo7hstUSqARlFea2IAHi-21" value="ID пользователя" style="ellipse;whiteSpace=wrap;html=1;" parent="1" vertex="1">
          <mxGeometry x="-1195" y="-157" width="96" height="45" as="geometry" />
        </mxCell>
        <mxCell id="fo7hstUSqARlFea2IAHi-22" value="" style="endArrow=none;html=1;rounded=0;" parent="1" edge="1">
          <mxGeometry width="50" height="50" relative="1" as="geometry">
            <mxPoint x="-1390" y="-230" as="sourcePoint" />
            <mxPoint x="-1283" y="-232" as="targetPoint" />
          </mxGeometry>
        </mxCell>
        <mxCell id="fo7hstUSqARlFea2IAHi-24" value="Видение продукта" style="ellipse;whiteSpace=wrap;html=1;" parent="1" vertex="1">
          <mxGeometry x="-1474" y="-253" width="90" height="49" as="geometry" />
        </mxCell>
        <mxCell id="fo7hstUSqARlFea2IAHi-25" value="" style="endArrow=none;html=1;rounded=0;" parent="1" edge="1">
          <mxGeometry width="50" height="50" relative="1" as="geometry">
            <mxPoint x="-1399" y="-132" as="sourcePoint" />
            <mxPoint x="-1295" y="-133" as="targetPoint" />
          </mxGeometry>
        </mxCell>
        <mxCell id="fo7hstUSqARlFea2IAHi-26" value="Модели процессов" style="ellipse;whiteSpace=wrap;html=1;" parent="1" vertex="1">
          <mxGeometry x="-1483" y="-158.5" width="91" height="48" as="geometry" />
        </mxCell>
        <mxCell id="fo7hstUSqARlFea2IAHi-27" value="" style="endArrow=none;html=1;rounded=0;" parent="1" edge="1">
          <mxGeometry width="50" height="50" relative="1" as="geometry">
            <mxPoint x="-1405" y="-58.5" as="sourcePoint" />
            <mxPoint x="-1295" y="-59.5" as="targetPoint" />
          </mxGeometry>
        </mxCell>
        <mxCell id="fo7hstUSqARlFea2IAHi-28" value="Описание" style="ellipse;whiteSpace=wrap;html=1;" parent="1" vertex="1">
          <mxGeometry x="-1481" y="-78" width="79" height="38" as="geometry" />
        </mxCell>
        <mxCell id="fo7hstUSqARlFea2IAHi-29" value="" style="endArrow=none;html=1;rounded=0;" parent="1" edge="1">
          <mxGeometry width="50" height="50" relative="1" as="geometry">
            <mxPoint x="-1294" y="-59.5" as="sourcePoint" />
            <mxPoint x="-1188" y="-59.5" as="targetPoint" />
          </mxGeometry>
        </mxCell>
        <mxCell id="fo7hstUSqARlFea2IAHi-30" value="Дата создания" style="ellipse;whiteSpace=wrap;html=1;" parent="1" vertex="1">
          <mxGeometry x="-1192" y="-69" width="93" height="32" as="geometry" />
        </mxCell>
        <mxCell id="fo7hstUSqARlFea2IAHi-31" value="" style="endArrow=none;html=1;rounded=0;" parent="1" edge="1">
          <mxGeometry width="50" height="50" relative="1" as="geometry">
            <mxPoint x="-1306" y="24" as="sourcePoint" />
            <mxPoint x="-1203" y="23" as="targetPoint" />
          </mxGeometry>
        </mxCell>
        <mxCell id="fo7hstUSqARlFea2IAHi-32" value="Срок выполнения" style="ellipse;whiteSpace=wrap;html=1;" parent="1" vertex="1">
          <mxGeometry x="-1203" y="5" width="99" height="35" as="geometry" />
        </mxCell>
        <mxCell id="fo7hstUSqARlFea2IAHi-33" value="" style="endArrow=none;html=1;rounded=0;" parent="1" edge="1">
          <mxGeometry width="50" height="50" relative="1" as="geometry">
            <mxPoint x="-1392" y="25" as="sourcePoint" />
            <mxPoint x="-1289" y="23" as="targetPoint" />
          </mxGeometry>
        </mxCell>
        <mxCell id="fo7hstUSqARlFea2IAHi-34" value="Статус" style="ellipse;whiteSpace=wrap;html=1;" parent="1" vertex="1">
          <mxGeometry x="-1496" y="-3" width="101" height="45" as="geometry" />
        </mxCell>
        <mxCell id="fo7hstUSqARlFea2IAHi-36" value="МОДЕЛЬ ДАННЫХ" style="rounded=0;whiteSpace=wrap;html=1;" parent="1" vertex="1">
          <mxGeometry x="-1405" y="236" width="192" height="60" as="geometry" />
        </mxCell>
        <mxCell id="fo7hstUSqARlFea2IAHi-46" value="" style="endArrow=none;html=1;rounded=0;entryX=0.5;entryY=1;entryDx=0;entryDy=0;" parent="1" edge="1" target="fo7hstUSqARlFea2IAHi-36">
          <mxGeometry width="50" height="50" relative="1" as="geometry">
            <mxPoint x="-1303" y="617" as="sourcePoint" />
            <mxPoint x="-1298" y="591" as="targetPoint" />
          </mxGeometry>
        </mxCell>
        <mxCell id="fo7hstUSqARlFea2IAHi-47" value="" style="endArrow=none;html=1;rounded=0;" parent="1" edge="1">
          <mxGeometry width="50" height="50" relative="1" as="geometry">
            <mxPoint x="-1308" y="351" as="sourcePoint" />
            <mxPoint x="-1248" y="351" as="targetPoint" />
          </mxGeometry>
        </mxCell>
        <mxCell id="fo7hstUSqARlFea2IAHi-48" value="Артефакты реализации" style="ellipse;whiteSpace=wrap;html=1;" parent="1" vertex="1">
          <mxGeometry x="-1253" y="330" width="97" height="40" as="geometry" />
        </mxCell>
        <mxCell id="fo7hstUSqARlFea2IAHi-49" value="" style="endArrow=none;html=1;rounded=0;" parent="1" target="fo7hstUSqARlFea2IAHi-50" edge="1">
          <mxGeometry width="50" height="50" relative="1" as="geometry">
            <mxPoint x="-1305" y="350" as="sourcePoint" />
            <mxPoint x="-1227" y="706" as="targetPoint" />
          </mxGeometry>
        </mxCell>
        <mxCell id="fo7hstUSqARlFea2IAHi-50" value="Исходный код" style="ellipse;whiteSpace=wrap;html=1;" parent="1" vertex="1">
          <mxGeometry x="-1445" y="334.5" width="83" height="31" as="geometry" />
        </mxCell>
        <mxCell id="fo7hstUSqARlFea2IAHi-51" value="" style="endArrow=none;html=1;rounded=0;" parent="1" edge="1">
          <mxGeometry width="50" height="50" relative="1" as="geometry">
            <mxPoint x="-1305" y="430.5" as="sourcePoint" />
            <mxPoint x="-1239" y="429.5" as="targetPoint" />
          </mxGeometry>
        </mxCell>
        <mxCell id="fo7hstUSqARlFea2IAHi-52" value="Репозиторий кода" style="ellipse;whiteSpace=wrap;html=1;" parent="1" vertex="1">
          <mxGeometry x="-1243" y="413" width="83" height="34" as="geometry" />
        </mxCell>
        <mxCell id="fo7hstUSqARlFea2IAHi-54" value="" style="endArrow=none;html=1;rounded=0;" parent="1" edge="1">
          <mxGeometry width="50" height="50" relative="1" as="geometry">
            <mxPoint x="-1370" y="430.5" as="sourcePoint" />
            <mxPoint x="-1304" y="429.5" as="targetPoint" />
          </mxGeometry>
        </mxCell>
        <mxCell id="fo7hstUSqARlFea2IAHi-57" value="Инструкции по сборке" style="ellipse;whiteSpace=wrap;html=1;" parent="1" vertex="1">
          <mxGeometry x="-1445" y="409" width="83" height="34" as="geometry" />
        </mxCell>
        <mxCell id="fo7hstUSqARlFea2IAHi-58" value="" style="endArrow=none;html=1;rounded=0;" parent="1" edge="1">
          <mxGeometry width="50" height="50" relative="1" as="geometry">
            <mxPoint x="-1296" y="695.5" as="sourcePoint" />
            <mxPoint x="-1230" y="694.5" as="targetPoint" />
          </mxGeometry>
        </mxCell>
        <mxCell id="fo7hstUSqARlFea2IAHi-59" value="Тест планы" style="ellipse;whiteSpace=wrap;html=1;" parent="1" vertex="1">
          <mxGeometry x="-1232" y="678" width="83" height="34" as="geometry" />
        </mxCell>
        <mxCell id="fo7hstUSqARlFea2IAHi-60" value="" style="endArrow=none;html=1;rounded=0;" parent="1" edge="1">
          <mxGeometry width="50" height="50" relative="1" as="geometry">
            <mxPoint x="-1293" y="754.5" as="sourcePoint" />
            <mxPoint x="-1227" y="753.5" as="targetPoint" />
          </mxGeometry>
        </mxCell>
        <mxCell id="fo7hstUSqARlFea2IAHi-61" value="Тест кейсы" style="ellipse;whiteSpace=wrap;html=1;" parent="1" vertex="1">
          <mxGeometry x="-1232" y="737" width="83" height="34" as="geometry" />
        </mxCell>
        <mxCell id="fo7hstUSqARlFea2IAHi-62" value="" style="endArrow=none;html=1;rounded=0;" parent="1" edge="1">
          <mxGeometry width="50" height="50" relative="1" as="geometry">
            <mxPoint x="-1035" y="-415" as="sourcePoint" />
            <mxPoint x="-408" y="-642" as="targetPoint" />
          </mxGeometry>
        </mxCell>
        <mxCell id="fo7hstUSqARlFea2IAHi-64" value="" style="endArrow=none;html=1;rounded=0;entryX=0.5;entryY=1;entryDx=0;entryDy=0;" parent="1" edge="1" target="fo7hstUSqARlFea2IAHi-65">
          <mxGeometry width="50" height="50" relative="1" as="geometry">
            <mxPoint x="-440" y="-312" as="sourcePoint" />
            <mxPoint x="-716" y="-999" as="targetPoint" />
          </mxGeometry>
        </mxCell>
        <mxCell id="fo7hstUSqARlFea2IAHi-65" value="&lt;font face=&quot;Times New Roman&quot;&gt;&lt;span style=&quot;font-size: 14px;&quot;&gt;ИНДЕФИТИКАЦИЯ НЕОБХОДИМЫХ ПРОТОКОЛОВ&lt;/span&gt;&lt;/font&gt;" style="rounded=0;whiteSpace=wrap;html=1;" parent="1" vertex="1">
          <mxGeometry x="-496" y="-1043" width="242" height="64" as="geometry" />
        </mxCell>
        <mxCell id="fo7hstUSqARlFea2IAHi-66" value="" style="endArrow=none;html=1;rounded=0;" parent="1" edge="1" target="fo7hstUSqARlFea2IAHi-67">
          <mxGeometry width="50" height="50" relative="1" as="geometry">
            <mxPoint x="-441" y="-892" as="sourcePoint" />
            <mxPoint x="-329" y="-892" as="targetPoint" />
          </mxGeometry>
        </mxCell>
        <mxCell id="fo7hstUSqARlFea2IAHi-67" value="Решения" style="ellipse;whiteSpace=wrap;html=1;" parent="1" vertex="1">
          <mxGeometry x="-320" y="-916" width="120" height="49" as="geometry" />
        </mxCell>
        <mxCell id="fo7hstUSqARlFea2IAHi-68" value="" style="endArrow=none;html=1;rounded=0;" parent="1" edge="1" source="fo7hstUSqARlFea2IAHi-69">
          <mxGeometry width="50" height="50" relative="1" as="geometry">
            <mxPoint x="-552" y="-892" as="sourcePoint" />
            <mxPoint x="-440" y="-892" as="targetPoint" />
          </mxGeometry>
        </mxCell>
        <mxCell id="fo7hstUSqARlFea2IAHi-69" value="совещания" style="ellipse;whiteSpace=wrap;html=1;" parent="1" vertex="1">
          <mxGeometry x="-688" y="-921" width="120" height="49" as="geometry" />
        </mxCell>
        <mxCell id="fo7hstUSqARlFea2IAHi-72" value="" style="endArrow=none;html=1;rounded=0;exitX=1;exitY=0.5;exitDx=0;exitDy=0;" parent="1" edge="1" source="fo7hstUSqARlFea2IAHi-73">
          <mxGeometry width="50" height="50" relative="1" as="geometry">
            <mxPoint x="-602" y="-806" as="sourcePoint" />
            <mxPoint x="-392" y="-803" as="targetPoint" />
          </mxGeometry>
        </mxCell>
        <mxCell id="fo7hstUSqARlFea2IAHi-73" value="Спринты" style="ellipse;whiteSpace=wrap;html=1;" parent="1" vertex="1">
          <mxGeometry x="-718" y="-828" width="120" height="49" as="geometry" />
        </mxCell>
        <mxCell id="fo7hstUSqARlFea2IAHi-74" value="" style="endArrow=none;html=1;rounded=0;entryX=0;entryY=0.5;entryDx=0;entryDy=0;" parent="1" edge="1" target="fo7hstUSqARlFea2IAHi-75">
          <mxGeometry width="50" height="50" relative="1" as="geometry">
            <mxPoint x="-401" y="-724" as="sourcePoint" />
            <mxPoint x="-456" y="-727" as="targetPoint" />
          </mxGeometry>
        </mxCell>
        <mxCell id="fo7hstUSqARlFea2IAHi-75" value="Местоположение" style="ellipse;whiteSpace=wrap;html=1;" parent="1" vertex="1">
          <mxGeometry x="-324" y="-751" width="120" height="49" as="geometry" />
        </mxCell>
        <mxCell id="fo7hstUSqARlFea2IAHi-77" value="&lt;font face=&quot;Times New Roman&quot;&gt;&lt;span style=&quot;font-size: 14px;&quot;&gt;протоколы&lt;/span&gt;&lt;/font&gt;" style="rounded=0;whiteSpace=wrap;html=1;" parent="1" vertex="1">
          <mxGeometry x="-566" y="-310" width="242" height="64" as="geometry" />
        </mxCell>
        <mxCell id="fo7hstUSqARlFea2IAHi-78" value="" style="endArrow=none;html=1;rounded=0;" parent="1" edge="1">
          <mxGeometry width="50" height="50" relative="1" as="geometry">
            <mxPoint x="-439" y="139" as="sourcePoint" />
            <mxPoint x="-443" y="-246" as="targetPoint" />
          </mxGeometry>
        </mxCell>
        <mxCell id="fo7hstUSqARlFea2IAHi-79" value="" style="endArrow=none;html=1;rounded=0;" parent="1" edge="1">
          <mxGeometry width="50" height="50" relative="1" as="geometry">
            <mxPoint x="-442" y="-150" as="sourcePoint" />
            <mxPoint x="-330" y="-150" as="targetPoint" />
          </mxGeometry>
        </mxCell>
        <mxCell id="fo7hstUSqARlFea2IAHi-80" value="Планирование" style="ellipse;whiteSpace=wrap;html=1;" parent="1" vertex="1">
          <mxGeometry x="-324" y="-173" width="120" height="49" as="geometry" />
        </mxCell>
        <mxCell id="fo7hstUSqARlFea2IAHi-81" value="" style="endArrow=none;html=1;rounded=0;" parent="1" edge="1">
          <mxGeometry width="50" height="50" relative="1" as="geometry">
            <mxPoint x="-551" y="-149" as="sourcePoint" />
            <mxPoint x="-439" y="-149" as="targetPoint" />
          </mxGeometry>
        </mxCell>
        <mxCell id="fo7hstUSqARlFea2IAHi-82" value="протоколы совещаний" style="ellipse;whiteSpace=wrap;html=1;" parent="1" vertex="1">
          <mxGeometry x="-670" y="-173" width="120" height="49" as="geometry" />
        </mxCell>
        <mxCell id="fo7hstUSqARlFea2IAHi-83" value="" style="endArrow=none;html=1;rounded=0;" parent="1" edge="1">
          <mxGeometry width="50" height="50" relative="1" as="geometry">
            <mxPoint x="-441" y="-3" as="sourcePoint" />
            <mxPoint x="-329" y="-3" as="targetPoint" />
          </mxGeometry>
        </mxCell>
        <mxCell id="fo7hstUSqARlFea2IAHi-84" value="Ретроспектива" style="ellipse;whiteSpace=wrap;html=1;" parent="1" vertex="1">
          <mxGeometry x="-329" y="-26" width="120" height="49" as="geometry" />
        </mxCell>
        <mxCell id="fo7hstUSqARlFea2IAHi-85" value="" style="endArrow=none;html=1;rounded=0;" parent="1" edge="1">
          <mxGeometry width="50" height="50" relative="1" as="geometry">
            <mxPoint x="-550" y="-3" as="sourcePoint" />
            <mxPoint x="-438" y="-3" as="targetPoint" />
          </mxGeometry>
        </mxCell>
        <mxCell id="fo7hstUSqARlFea2IAHi-86" value="Обзор спринта" style="ellipse;whiteSpace=wrap;html=1;" parent="1" vertex="1">
          <mxGeometry x="-662" y="-26" width="120" height="49" as="geometry" />
        </mxCell>
        <mxCell id="fo7hstUSqARlFea2IAHi-87" value="" style="endArrow=none;html=1;rounded=0;" parent="1" edge="1">
          <mxGeometry width="50" height="50" relative="1" as="geometry">
            <mxPoint x="-441" y="137.64" as="sourcePoint" />
            <mxPoint x="-329" y="137.64" as="targetPoint" />
          </mxGeometry>
        </mxCell>
        <mxCell id="fo7hstUSqARlFea2IAHi-88" value="протоколы спринта" style="ellipse;whiteSpace=wrap;html=1;" parent="1" vertex="1">
          <mxGeometry x="-331" y="113.5" width="120" height="49" as="geometry" />
        </mxCell>
        <mxCell id="fo7hstUSqARlFea2IAHi-89" value="" style="endArrow=none;html=1;rounded=0;" parent="1" edge="1">
          <mxGeometry width="50" height="50" relative="1" as="geometry">
            <mxPoint x="-544" y="137.5" as="sourcePoint" />
            <mxPoint x="-432" y="137.5" as="targetPoint" />
          </mxGeometry>
        </mxCell>
        <mxCell id="fo7hstUSqARlFea2IAHi-90" value="Протоколы решений" style="ellipse;whiteSpace=wrap;html=1;" parent="1" vertex="1">
          <mxGeometry x="-662" y="111" width="120" height="49" as="geometry" />
        </mxCell>
        <mxCell id="bIShvIgGqDiLp2vMq10V-1" value="" style="endArrow=none;html=1;rounded=0;exitX=1;exitY=0;exitDx=0;exitDy=0;" edge="1" parent="1" source="fo7hstUSqARlFea2IAHi-16">
          <mxGeometry width="50" height="50" relative="1" as="geometry">
            <mxPoint x="-1145" y="-375" as="sourcePoint" />
            <mxPoint x="-1035.864274690633" y="-414.5294753089047" as="targetPoint" />
          </mxGeometry>
        </mxCell>
        <mxCell id="bIShvIgGqDiLp2vMq10V-2" value="Артефакты тестирования" style="rounded=0;whiteSpace=wrap;html=1;" vertex="1" parent="1">
          <mxGeometry x="-1362" y="610" width="120" height="60" as="geometry" />
        </mxCell>
        <mxCell id="bIShvIgGqDiLp2vMq10V-3" value="" style="endArrow=none;html=1;rounded=0;entryX=0.5;entryY=1;entryDx=0;entryDy=0;" edge="1" parent="1" target="bIShvIgGqDiLp2vMq10V-2">
          <mxGeometry width="50" height="50" relative="1" as="geometry">
            <mxPoint x="-1298" y="804" as="sourcePoint" />
            <mxPoint x="-815" y="867" as="targetPoint" />
          </mxGeometry>
        </mxCell>
        <mxCell id="bIShvIgGqDiLp2vMq10V-4" value="Отчет о дефектах" style="ellipse;whiteSpace=wrap;html=1;" vertex="1" parent="1">
          <mxGeometry x="-1428" y="678" width="76" height="41" as="geometry" />
        </mxCell>
        <mxCell id="bIShvIgGqDiLp2vMq10V-5" value="" style="endArrow=none;html=1;rounded=0;exitX=1;exitY=0.5;exitDx=0;exitDy=0;" edge="1" parent="1" source="bIShvIgGqDiLp2vMq10V-4">
          <mxGeometry width="50" height="50" relative="1" as="geometry">
            <mxPoint x="-865" y="917" as="sourcePoint" />
            <mxPoint x="-1302" y="696" as="targetPoint" />
            <Array as="points" />
          </mxGeometry>
        </mxCell>
        <mxCell id="bIShvIgGqDiLp2vMq10V-6" value="ЭКСПЛАТУЦИОННЫЕ АРТЕФАКТЫ" style="rounded=0;whiteSpace=wrap;html=1;" vertex="1" parent="1">
          <mxGeometry x="-1359" y="794" width="120" height="60" as="geometry" />
        </mxCell>
        <mxCell id="bIShvIgGqDiLp2vMq10V-7" value="" style="endArrow=none;html=1;rounded=0;entryX=0.5;entryY=1;entryDx=0;entryDy=0;" edge="1" parent="1" target="bIShvIgGqDiLp2vMq10V-6">
          <mxGeometry width="50" height="50" relative="1" as="geometry">
            <mxPoint x="-1299" y="974" as="sourcePoint" />
            <mxPoint x="-815" y="867" as="targetPoint" />
          </mxGeometry>
        </mxCell>
        <mxCell id="bIShvIgGqDiLp2vMq10V-8" value="" style="endArrow=none;html=1;rounded=0;" edge="1" parent="1">
          <mxGeometry width="50" height="50" relative="1" as="geometry">
            <mxPoint x="-1174" y="876" as="sourcePoint" />
            <mxPoint x="-1299" y="876" as="targetPoint" />
          </mxGeometry>
        </mxCell>
        <mxCell id="bIShvIgGqDiLp2vMq10V-9" value="Руководство пользователя" style="ellipse;whiteSpace=wrap;html=1;" vertex="1" parent="1">
          <mxGeometry x="-1188.5" y="859" width="83" height="34" as="geometry" />
        </mxCell>
        <mxCell id="bIShvIgGqDiLp2vMq10V-10" value="Руководство администратора" style="ellipse;whiteSpace=wrap;html=1;" vertex="1" parent="1">
          <mxGeometry x="-1445" y="888" width="83" height="34" as="geometry" />
        </mxCell>
        <mxCell id="bIShvIgGqDiLp2vMq10V-11" value="" style="endArrow=none;html=1;rounded=0;exitX=1;exitY=0.5;exitDx=0;exitDy=0;" edge="1" parent="1" source="bIShvIgGqDiLp2vMq10V-10">
          <mxGeometry width="50" height="50" relative="1" as="geometry">
            <mxPoint x="-1348" y="947" as="sourcePoint" />
            <mxPoint x="-1301" y="905" as="targetPoint" />
          </mxGeometry>
        </mxCell>
        <mxCell id="bIShvIgGqDiLp2vMq10V-12" value="Релизные записи" style="ellipse;whiteSpace=wrap;html=1;" vertex="1" parent="1">
          <mxGeometry x="-1258" y="947" width="83" height="34" as="geometry" />
        </mxCell>
        <mxCell id="bIShvIgGqDiLp2vMq10V-13" value="" style="endArrow=none;html=1;rounded=0;entryX=0;entryY=0.5;entryDx=0;entryDy=0;" edge="1" parent="1" target="bIShvIgGqDiLp2vMq10V-12">
          <mxGeometry width="50" height="50" relative="1" as="geometry">
            <mxPoint x="-1298" y="962" as="sourcePoint" />
            <mxPoint x="-815" y="867" as="targetPoint" />
          </mxGeometry>
        </mxCell>
      </root>
    </mxGraphModel>
  </diagram>
</mxfile>
